<svg width="76" height="76" viewBox="0 0 76 76" fill="none" xmlns="http://www.w3.org/2000/svg">
<mask id="path-1-inside-1_21_994" fill="white">
<rect width="76" height="76" rx="7" transform="matrix(-4.37114e-08 1 1 4.37114e-08 0 0)"/>
</mask>
<rect width="76" height="76" rx="7" transform="matrix(-4.37114e-08 1 1 4.37114e-08 0 0)" stroke="#4765B4" stroke-width="22" stroke-linecap="round" stroke-linejoin="round" mask="url(#path-1-inside-1_21_994)"/>
<g filter="url(#filter0_d_21_994)">
<path d="M37.36 56.48C35.152 56.48 33.152 56.224 31.36 55.712C29.6 55.168 28.032 54.4 26.656 53.408C25.28 52.384 24.048 51.184 22.96 49.808L27.904 44.192C29.504 46.336 31.104 47.776 32.704 48.512C34.336 49.248 36.016 49.616 37.744 49.616C38.608 49.616 39.392 49.504 40.096 49.28C40.8 49.056 41.344 48.736 41.728 48.32C42.112 47.872 42.304 47.328 42.304 46.688C42.304 46.208 42.176 45.776 41.92 45.392C41.696 45.008 41.376 44.672 40.96 44.384C40.544 44.096 40.048 43.84 39.472 43.616C38.896 43.36 38.288 43.152 37.648 42.992C37.008 42.8 36.352 42.64 35.68 42.512C33.824 42.096 32.208 41.584 30.832 40.976C29.456 40.368 28.304 39.632 27.376 38.768C26.48 37.872 25.808 36.864 25.36 35.744C24.912 34.592 24.688 33.312 24.688 31.904C24.688 30.4 25.024 29.024 25.696 27.776C26.4 26.496 27.328 25.408 28.48 24.512C29.664 23.584 31.024 22.88 32.56 22.4C34.096 21.888 35.696 21.632 37.36 21.632C39.568 21.632 41.456 21.872 43.024 22.352C44.624 22.8 45.984 23.456 47.104 24.32C48.256 25.184 49.232 26.224 50.032 27.44L44.992 32.288C44.32 31.456 43.584 30.768 42.784 30.224C42.016 29.68 41.184 29.264 40.288 28.976C39.424 28.688 38.528 28.544 37.6 28.544C36.64 28.544 35.808 28.672 35.104 28.928C34.432 29.152 33.904 29.488 33.52 29.936C33.136 30.352 32.944 30.864 32.944 31.472C32.944 32.016 33.104 32.48 33.424 32.864C33.744 33.248 34.176 33.6 34.72 33.92C35.264 34.208 35.888 34.464 36.592 34.688C37.296 34.88 38.032 35.04 38.8 35.168C40.56 35.52 42.144 35.984 43.552 36.56C44.992 37.136 46.224 37.84 47.248 38.672C48.304 39.504 49.104 40.496 49.648 41.648C50.224 42.768 50.512 44.08 50.512 45.584C50.512 47.92 49.936 49.904 48.784 51.536C47.664 53.136 46.112 54.368 44.128 55.232C42.176 56.064 39.92 56.48 37.36 56.48Z" fill="#FAFAFA"/>
</g>
<defs>
<filter id="filter0_d_21_994" x="18.96" y="21.632" width="35.5522" height="42.848" filterUnits="userSpaceOnUse" color-interpolation-filters="sRGB">
<feFlood flood-opacity="0" result="BackgroundImageFix"/>
<feColorMatrix in="SourceAlpha" type="matrix" values="0 0 0 0 0 0 0 0 0 0 0 0 0 0 0 0 0 0 127 0" result="hardAlpha"/>
<feOffset dy="4"/>
<feGaussianBlur stdDeviation="2"/>
<feComposite in2="hardAlpha" operator="out"/>
<feColorMatrix type="matrix" values="0 0 0 0 0.625 0 0 0 0 0.594618 0 0 0 0 0.594618 0 0 0 0.18 0"/>
<feBlend mode="normal" in2="BackgroundImageFix" result="effect1_dropShadow_21_994"/>
<feBlend mode="normal" in="SourceGraphic" in2="effect1_dropShadow_21_994" result="shape"/>
</filter>
</defs>
</svg>
